<svg width="33" height="47" viewBox="0 0 33 47" fill="none" xmlns="http://www.w3.org/2000/svg">
<g clip-path="url(#clip0_306_94)">
<path d="M0.380376 45.1675L0.32184 44.7657C0.204767 44.0102 0.409645 43.4315 0.965742 42.885L7.65355 36.2304C9.14623 34.7999 10.2584 33.4336 10.2584 31.6655C10.2584 29.8973 8.95599 28.7722 7.21452 28.7722C5.47306 28.7722 4.75599 29.5276 4.39013 30.4117C4.02428 31.2315 3.74623 31.6815 2.95599 31.6815H1.43403C0.555986 31.6815 -0.000111571 31.1029 0.190132 30.1545C0.716962 27.4863 2.73647 24.8662 7.30233 24.8662C11.5316 24.8662 14.4145 27.5023 14.4145 31.7298C14.4145 34.7999 12.6731 37.0824 10.8145 38.8023L6.64379 42.6921L6.67306 42.8207C7.75599 42.6921 10.4633 42.6439 10.6828 42.6439H13.9023C14.7657 42.6439 15.234 43.1904 15.234 44.1388V45.0228C15.234 45.9712 14.7657 46.4856 13.9023 46.4856H1.81452C1.00964 46.5016 0.512084 46.0516 0.380376 45.1675Z" fill="#011588"/>
<path d="M18.556 45.1837C17.9267 44.7015 17.8975 44.0103 18.3658 43.3352L19.0243 42.4029C19.4633 41.76 20.0194 41.6796 20.678 42.0654C22.1414 42.9494 23.2097 43.1262 24.4828 43.1262C27.3658 43.1262 28.7706 41.2777 28.7706 39.4453C28.7706 37.42 27.2048 36.118 25.2145 36.118C24.7755 36.118 24.1755 36.1823 23.5609 36.4234C22.8731 36.6324 22.3755 36.552 21.9658 35.9091L21.6584 35.4912C21.2487 34.8321 21.3219 34.1892 21.9072 33.6427L26.3853 29.3188H19.8584C19.0828 29.3188 18.6438 28.8366 18.6438 27.9847V26.8113C18.6438 25.9915 19.0828 25.5093 19.8584 25.5093H31.0828C31.8292 25.5093 32.2682 25.9915 32.2682 26.8113V27.2613C32.2682 27.9204 32.0487 28.4026 31.5804 28.8687L26.8243 33.3694C27.2048 33.3694 27.5999 33.4015 27.9511 33.498C30.6438 33.9159 32.9853 36.0055 32.9853 39.5739C32.9853 43.721 30.1023 47.0161 24.7609 47.0161C22.3755 47 20.2097 46.3732 18.556 45.1837Z" fill="#011588"/>
<path d="M31.4049 4.70968H19.5512C18.9805 4.70968 18.5122 4.19532 18.5122 3.56844V1.15736C18.5122 0.530477 18.9805 0.0161133 19.5512 0.0161133H31.4049C31.9756 0.0161133 32.4439 0.530477 32.4439 1.15736V3.56844C32.4585 4.19532 31.9903 4.70968 31.4049 4.70968Z" fill="#B01630"/>
<path d="M31.4049 12.8591H19.5512C18.9805 12.8591 18.5122 12.3447 18.5122 11.7179V9.30677C18.5122 8.67989 18.9805 8.16553 19.5512 8.16553H31.4049C31.9756 8.16553 32.4439 8.67989 32.4439 9.30677V11.7179C32.4585 12.3447 31.9903 12.8591 31.4049 12.8591Z" fill="#F6DC00"/>
<path d="M31.4049 21.0246H19.5512C18.9805 21.0246 18.5122 20.5103 18.5122 19.8834V17.4723C18.5122 16.8454 18.9805 16.3311 19.5512 16.3311H31.4049C31.9756 16.3311 32.4439 16.8454 32.4439 17.4723V19.8834C32.4585 20.5103 31.9903 21.0246 31.4049 21.0246Z" fill="#B01630"/>
<path d="M0 13.3092V1.4145C0 0.49829 0.482927 0 1.31707 0H2.98537C3.81951 0 4.27317 0.49829 4.27317 1.4145V13.3092C4.27317 16.0096 5.88293 17.3919 7.8 17.3919C9.71707 17.3919 11.3561 16.0096 11.3561 13.3092V1.4145C11.3561 0.49829 11.839 0 12.6732 0H14.3415C15.1756 0 15.6293 0.49829 15.6293 1.4145V13.3092C15.6293 18.6296 12.0439 21.4747 7.8 21.4747C3.5561 21.4747 0 18.6296 0 13.3092Z" fill="#011588"/>
</g>
<defs>
<clipPath id="clip0_306_94">
<rect width="33" height="47" fill="white"/>
</clipPath>
</defs>
</svg>
